<?xml version="1.0" encoding="utf-8"?>
<!-- Generator: Adobe Illustrator 26.1.0, SVG Export Plug-In . SVG Version: 6.00 Build 0)  -->
<svg version="1.1" id="Livello_1" xmlns="http://www.w3.org/2000/svg" xmlns:xlink="http://www.w3.org/1999/xlink" x="0px" y="0px"
	 viewBox="0 0 515 105" style="enable-background:new 0 0 515 105;" xml:space="preserve">
<style type="text/css">
	.st0{fill:#28C83C;}
	.st1{fill:#0037A0;}
	.st2{fill:#FFFFFF;}
</style>
<g>
	<g>
		<path class="st0" d="M142.4,94.4h9v3.5h-13.1V79.5h4.1V94.4z"/>
		<path class="st0" d="M154.1,88.8c0.2-3.1,2.2-4.6,5.9-4.6c2,0,3.6,0.5,4.6,1.4c1,0.9,1.3,1.9,1.3,3.9v6.1c0,1.4,0.1,1.6,0.5,2.3
			h-4c-0.2-0.5-0.2-0.6-0.3-1c-1.3,1.1-2.2,1.4-3.8,1.4c-3,0-4.9-1.7-4.9-4.2s1.6-3.8,5.3-4.4l2.1-0.4c0.9-0.1,1.2-0.4,1.2-0.9
			c0-0.7-0.8-1.2-2-1.2c-1.4,0-2.2,0.5-2.4,1.6H154.1z M162.2,91.6c-0.4,0.2-0.8,0.3-1.4,0.4l-1.4,0.3c-1.4,0.3-2,0.8-2,1.6
			c0,0.9,0.7,1.4,2,1.4c1.3,0,2.2-0.6,2.9-1.7V91.6z"/>
		<path class="st0" d="M186.9,89.4c-0.2-1.3-1.1-2-2.4-2c-1.8,0-2.8,1.4-2.8,3.8c0,2.6,1,3.9,2.8,3.9c1.4,0,2.2-0.7,2.5-2.3l3.8,0.2
			c-0.6,3.4-2.9,5.3-6.4,5.3c-4.1,0-6.6-2.7-6.6-7c0-4.4,2.5-7.1,6.8-7.1c3.5,0,5.9,2,6.1,5.2H186.9z"/>
		<path class="st0" d="M207.1,91.4c0,4-3,6.9-7.1,6.9c-4.1,0-7.1-2.9-7.1-7c0-4.1,2.9-7,7.1-7C204.2,84.2,207.1,87.1,207.1,91.4z
			 M196.9,91.2c0,2.5,1.1,3.9,3.1,3.9c2,0,3.1-1.4,3.1-3.8c0-2.6-1.1-4-3.1-4C198,87.4,196.9,88.8,196.9,91.2z"/>
		<path class="st0" d="M214,84.6v1.6c1.2-1.5,2.1-2,3.7-2c1.7,0,2.9,0.7,3.7,2.2c1.4-1.6,2.4-2.2,4.1-2.2c1.4,0,2.5,0.4,3.3,1.2
			c0.7,0.8,1,1.9,1,3.6v8.9h-3.9v-7.3c0-2-0.6-3-2-3c-1.4,0-2,0.9-2,3v7.3h-3.9v-7.3c0-2-0.6-3-2-3c-1.4,0-2,0.9-2,3v7.3h-3.9V84.6
			H214z"/>
		<path class="st0" d="M237.5,84.6l-0.1,1.6c1.1-1.4,2.1-1.9,3.8-1.9c3.5,0,5.9,2.8,5.9,7c0,4.2-2.3,7.1-5.8,7.1
			c-1.5,0-2.5-0.4-3.6-1.4v5.3h-3.9V84.6H237.5z M237.5,91.2c0,2.4,1.1,3.9,2.9,3.9c1.7,0,2.8-1.5,2.8-3.8c0-2.4-1.1-3.9-2.9-3.9
			C238.6,87.4,237.5,88.9,237.5,91.2z"/>
		<path class="st0" d="M250.1,88.8c0.2-3.1,2.2-4.6,5.9-4.6c2,0,3.6,0.5,4.6,1.4c1,0.9,1.3,1.9,1.3,3.9v6.1c0,1.4,0.1,1.6,0.5,2.3
			h-4c-0.2-0.5-0.2-0.6-0.3-1c-1.3,1.1-2.2,1.4-3.8,1.4c-3,0-4.9-1.7-4.9-4.2s1.6-3.8,5.3-4.4l2.1-0.4c0.9-0.1,1.2-0.4,1.2-0.9
			c0-0.7-0.8-1.2-2-1.2c-1.4,0-2.2,0.5-2.4,1.6H250.1z M258.1,91.6c-0.4,0.2-0.8,0.3-1.4,0.4l-1.4,0.3c-1.4,0.3-2,0.8-2,1.6
			c0,0.9,0.7,1.4,2,1.4c1.3,0,2.2-0.6,2.9-1.7V91.6z"/>
		<path class="st0" d="M278.3,84.7v12c0,2.2-0.3,3.1-1.2,4.1c-1.2,1.2-3,1.8-5.3,1.8c-3.7,0-6-1.5-6.2-4.2h4.1
			c0.3,0.8,1,1.2,2.3,1.2c0.8,0,1.4-0.2,1.8-0.5c0.6-0.5,0.7-1,0.7-2.3v-0.9c-1.2,1.1-2.1,1.4-3.6,1.4c-3.5,0-6-2.7-6-6.4
			c0-3.8,2.5-6.5,5.9-6.5c1.7,0,3,0.7,3.9,2.1l-0.1-1.6H278.3z M268.6,90.7c0,2,1.2,3.3,3,3.3c1.8,0,3-1.3,3-3.4c0-2-1.2-3.3-3-3.3
			S268.6,88.7,268.6,90.7z"/>
		<path class="st0" d="M285.9,84.6v1.3c1.4-1.3,2.3-1.7,3.6-1.7c2.9,0,4.7,1.9,4.7,5.1v8.6h-3.9v-7.3c0-1.4-0.1-1.9-0.4-2.4
			c-0.3-0.5-0.9-0.8-1.6-0.8c-0.7,0-1.3,0.2-1.7,0.7c-0.4,0.5-0.6,1-0.6,2.2v7.5h-3.9V84.6H285.9z"/>
		<path class="st0" d="M301.9,82.7h-3.9v-3.2h3.9V82.7z M301.9,97.9h-3.9V84.6h3.9V97.9z"/>
		<path class="st0" d="M305.7,88.8c0.2-3.1,2.2-4.6,5.9-4.6c2,0,3.6,0.5,4.6,1.4c1,0.9,1.3,1.9,1.3,3.9v6.1c0,1.4,0.1,1.6,0.5,2.3
			h-4c-0.2-0.5-0.2-0.6-0.3-1c-1.3,1.1-2.2,1.4-3.8,1.4c-3,0-4.9-1.7-4.9-4.2s1.6-3.8,5.3-4.4l2.1-0.4c0.9-0.1,1.2-0.4,1.2-0.9
			c0-0.7-0.8-1.2-2-1.2c-1.4,0-2.2,0.5-2.4,1.6H305.7z M313.7,91.6c-0.4,0.2-0.8,0.3-1.4,0.4l-1.4,0.3c-1.4,0.3-2,0.8-2,1.6
			c0,0.9,0.7,1.4,2,1.4c1.3,0,2.2-0.6,2.9-1.7V91.6z"/>
		<path class="st0" d="M342.5,97.9h-3.8v-1.4c-1,1.3-2,1.8-3.7,1.8c-3.5,0-5.8-2.8-5.8-7c0-4.3,2.4-7.1,6-7.1c1.4,0,2.5,0.4,3.4,1.4
			v-6.1h3.9V97.9z M333.1,91.2c0,2.3,1.1,3.9,2.8,3.9c1.7,0,2.8-1.5,2.8-3.8c0-2.4-1.1-3.9-2.8-3.9S333.1,88.9,333.1,91.2z"/>
		<path class="st0" d="M349.6,92.4c0.2,1.8,1.3,2.8,3,2.8c1,0,1.8-0.4,2.3-1.2h4c-0.7,2.6-3.2,4.3-6.4,4.3c-4.1,0-6.8-2.8-6.8-7
			c0-4.2,2.8-7,6.8-7c2.8,0,4.9,1.4,5.9,3.9c0.5,1.2,0.7,2.4,0.7,4.2H349.6z M355,89.6c-0.2-1.6-1.1-2.4-2.6-2.4s-2.5,0.9-2.8,2.4
			H355z"/>
		<path class="st0" d="M366.1,82.7h-3.9v-3.2h3.9V82.7z M366.1,97.9h-3.9V84.6h3.9V97.9z"/>
		<path class="st0" d="M381.6,97.9l-4.8-13.3h4.1l1.5,5.1c0.3,0.9,0.6,2.2,1,3.8c0.3-1.5,0.6-3,0.8-3.8l1.4-5.1h4.2l-4.5,13.3H381.6
			z"/>
		<path class="st0" d="M396,82.7h-3.9v-3.2h3.9V82.7z M396,97.9h-3.9V84.6h3.9V97.9z"/>
		<path class="st0" d="M399.8,88.8c0.2-3.1,2.2-4.6,5.9-4.6c2,0,3.6,0.5,4.6,1.4c1,0.9,1.3,1.9,1.3,3.9v6.1c0,1.4,0.1,1.6,0.5,2.3
			h-4c-0.2-0.5-0.2-0.6-0.3-1c-1.3,1.1-2.2,1.4-3.8,1.4c-3,0-4.9-1.7-4.9-4.2s1.6-3.8,5.3-4.4l2.1-0.4c0.9-0.1,1.2-0.4,1.2-0.9
			c0-0.7-0.8-1.2-2-1.2c-1.4,0-2.2,0.5-2.4,1.6H399.8z M407.9,91.6c-0.4,0.2-0.8,0.3-1.4,0.4l-1.4,0.3c-1.4,0.3-2,0.8-2,1.6
			c0,0.9,0.7,1.4,2,1.4c1.3,0,2.2-0.6,2.9-1.7V91.6z"/>
		<path class="st0" d="M428,84.7v12c0,2.2-0.3,3.1-1.2,4.1c-1.2,1.2-3,1.8-5.3,1.8c-3.7,0-6-1.5-6.2-4.2h4.1c0.3,0.8,1,1.2,2.3,1.2
			c0.8,0,1.4-0.2,1.8-0.5c0.6-0.5,0.7-1,0.7-2.3v-0.9c-1.2,1.1-2.1,1.4-3.6,1.4c-3.5,0-6-2.7-6-6.4c0-3.8,2.5-6.5,5.9-6.5
			c1.7,0,3,0.7,3.9,2.1l-0.1-1.6H428z M418.3,90.7c0,2,1.2,3.3,3,3.3c1.8,0,3-1.3,3-3.4c0-2-1.2-3.3-3-3.3
			C419.5,87.4,418.3,88.7,418.3,90.7z"/>
		<path class="st0" d="M444.5,84.7v12c0,2.2-0.3,3.1-1.2,4.1c-1.2,1.2-3,1.8-5.3,1.8c-3.7,0-6-1.5-6.2-4.2h4.1
			c0.3,0.8,1,1.2,2.3,1.2c0.8,0,1.4-0.2,1.8-0.5c0.6-0.5,0.7-1,0.7-2.3v-0.9c-1.2,1.1-2.1,1.4-3.6,1.4c-3.5,0-6-2.7-6-6.4
			c0-3.8,2.5-6.5,5.9-6.5c1.7,0,3,0.7,3.9,2.1l-0.1-1.6H444.5z M434.8,90.7c0,2,1.2,3.3,3,3.3c1.8,0,3-1.3,3-3.4c0-2-1.2-3.3-3-3.3
			S434.8,88.7,434.8,90.7z"/>
		<path class="st0" d="M452.2,82.7h-3.9v-3.2h3.9V82.7z M452.2,97.9h-3.9V84.6h3.9V97.9z"/>
		<path class="st0" d="M455.9,88.8c0.2-3.1,2.2-4.6,5.9-4.6c2,0,3.6,0.5,4.6,1.4c1,0.9,1.3,1.9,1.3,3.9v6.1c0,1.4,0.1,1.6,0.5,2.3
			h-4c-0.2-0.5-0.2-0.6-0.3-1c-1.3,1.1-2.2,1.4-3.8,1.4c-3,0-4.9-1.7-4.9-4.2s1.6-3.8,5.3-4.4l2.1-0.4c0.9-0.1,1.2-0.4,1.2-0.9
			c0-0.7-0.8-1.2-2-1.2c-1.4,0-2.2,0.5-2.4,1.6H455.9z M464,91.6c-0.4,0.2-0.8,0.3-1.4,0.4l-1.4,0.3c-1.4,0.3-2,0.8-2,1.6
			c0,0.9,0.7,1.4,2,1.4c1.3,0,2.2-0.6,2.9-1.7V91.6z"/>
		<path class="st0" d="M478.3,87.5h-2.4v5.2c0,2.1,0.1,2.3,1,2.3h1.4v3h-2.4c-1.7,0-2.6-0.2-3.1-0.9c-0.6-0.7-0.8-1.4-0.8-3.4v-6.1
			h-1.9v-2.8h1.9v-4.2h3.9v4.2h2.4V87.5z"/>
		<path class="st0" d="M494.4,91.4c0,4-3,6.9-7.1,6.9c-4.1,0-7.1-2.9-7.1-7c0-4.1,2.9-7,7.1-7C491.5,84.2,494.4,87.1,494.4,91.4z
			 M484.2,91.2c0,2.5,1.1,3.9,3.1,3.9c2,0,3.1-1.4,3.1-3.8c0-2.6-1.1-4-3.1-4C485.3,87.4,484.2,88.8,484.2,91.2z"/>
		<path class="st0" d="M501.3,84.6l-0.1,2.4c0.8-2.2,1.8-2.8,4.6-2.7v3.7c-0.5-0.1-0.7-0.1-1-0.1c-1.4,0-2.5,0.6-2.9,1.6
			c-0.4,0.9-0.5,2.1-0.5,4.7v3.8h-3.9V84.6H501.3z"/>
		<path class="st0" d="M512.1,82.7h-3.9v-3.2h3.9V82.7z M512.1,97.9h-3.9V84.6h3.9V97.9z"/>
	</g>
	<g>
		<path class="st1" d="M164.9,23.7c-3.8,9.7-12.6,35.3-14.6,41.9c-1.6-0.1-3.7-0.1-6-0.1c-3,0-4.9,0-6.1,0.1
			c-2.2-6.7-10.8-32.4-14.9-41.9h9.8c1,4.5,5.5,17.9,8.6,27.3c1.2,3.7,2.1,6.4,2.7,8.6c0.7-2.2,1.5-5,2.8-8.7c3-9.3,7.4-23,8.5-27.2
			H164.9z"/>
		<path class="st1" d="M193,65.7c-0.4-1.6-1.5-5.3-3-9.7c-3.5,0-7,0-9.8,0c-2.5,0-6.2,0-9.6,0c-1.5,4.3-2.6,7.9-3.2,9.7h-8.9
			c4.1-9.8,13.6-35.9,15.7-41.9h12.5c2.3,6.1,11.6,31.6,16,41.9H193z M187.9,49.8c-1.6-4.6-3.2-9.4-4.6-13.3
			c-1.5-3.9-2.4-6.7-3.1-8.6c-0.7,2-1.6,4.7-3.1,8.9c-1.3,3.9-2.9,8.6-4.5,13c2.6,0.1,5.5,0.1,7.5,0.1
			C182.3,49.9,185.2,49.9,187.9,49.8z"/>
		<path class="st1" d="M224.1,66.4c-13.2,0-20.4-8.6-20.4-22.1c0-13.6,7.2-21.3,20.5-21.3c12.9,0,18.1,6.7,18.1,13.8
			c0,0.8,0,1.4-0.1,2.2c-1-0.1-2.4-0.1-3.9-0.1c-1.7,0-3.2,0-4.2,0.1c0.1-0.5,0.1-1,0.1-1.4c0-4.9-3.3-7.6-10-7.6
			c-7.7,0-12.1,3.9-12.1,14.5c0,10.3,4.2,15.2,12.4,15.2c7.5,0,10.2-3,10-10.9c-3.8,0.1-9.2,0.1-12.3,0.2c0.1-0.6,0.1-1.7,0.1-2.3
			c0-1.4,0-2.5-0.1-3.5c3.4,0.1,6.8,0.1,9.3,0.1c2.9,0,6.9,0.1,10.7-0.1C243.1,58,240,66.4,224.1,66.4z"/>
		<path class="st1" d="M279.5,65.7c-0.4-1.6-1.5-5.3-3-9.7c-3.5,0-7,0-9.8,0c-2.5,0-6.2,0-9.6,0c-1.5,4.3-2.6,7.9-3.2,9.7h-8.9
			c4.1-9.8,13.6-35.9,15.7-41.9h12.5c2.3,6.1,11.6,31.6,16,41.9H279.5z M274.4,49.8c-1.6-4.6-3.2-9.4-4.6-13.3
			c-1.5-3.9-2.4-6.7-3.1-8.6c-0.7,2-1.6,4.7-3.1,8.9c-1.3,3.9-2.9,8.6-4.5,13c2.6,0.1,5.5,0.1,7.5,0.1
			C268.8,49.9,271.7,49.9,274.4,49.8z"/>
		<path class="st1" d="M320.5,44.7c1.8,0.2,3.4,0.4,4.5,0.8c3.9,1.4,5.8,4.2,5.8,8.9c0,7.7-4.9,11.3-14.7,11.3h-21.7
			c0.3-5.8,0.3-12.1,0.3-21s-0.1-15.5-0.3-21h21c10,0,14.8,3.1,14.8,10.8c0,4.6-1.5,7-4.7,8.7c-1.2,0.6-3,1-5,1.2V44.7z M313.5,29.9
			c-3.2,0-6.8,0.1-10.7,0.2c-0.1,3.1-0.1,7.3-0.1,11.5c3.9,0.2,7.5,0.1,10.6,0.1c6.3-0.1,8.8-2.1,8.8-6.3S319.6,29.9,313.5,29.9z
			 M322.6,52.9c0-4.1-2.6-5.8-9.2-5.8c-3,0-6.9,0.1-10.7,0.1c0,4.1,0,8.3,0.1,11.7c4.3,0.1,7.9,0.1,10.8,0.1
			C320.2,58.9,322.6,57.5,322.6,52.9z"/>
		<path class="st1" d="M357,66.4c-12.7,0-20.6-7.9-20.6-22.2s8.3-21.3,20.6-21.3c12.3,0,20.7,7,20.7,21.3S369.7,66.4,357,66.4z
			 M369.3,44.5c0-9.5-4.5-14.3-12.2-14.3c-7.8,0-12.4,4.6-12.4,14.3c0,9.6,4.6,14.5,12.4,14.5S369.3,54,369.3,44.5z"/>
		<path class="st1" d="M421.1,23.7c-0.1,4.6-0.2,12-0.2,20.9c0,9.2,0,15.5,0.1,21h-8.6c-2.3-4.2-10.3-15.9-16.7-25.1
			c-1.7-2.7-3.3-5.6-4.5-8.3h-0.1c0.2,3.6,0.4,7,0.4,10.2c0.1,11.9,0.1,20,0.2,23.3H384c0.1-5.5,0.1-12,0.1-21c0-8.9,0-15.8-0.1-21
			h10c1.8,3.2,10.4,15.4,16.3,24.4c1.5,2.2,2.9,5,4,7.6l0.1-0.1c-0.3-3.3-0.4-6.5-0.4-9.4c0-8.6-0.2-18.6-0.4-22.5H421.1z"/>
		<path class="st1" d="M444.8,23.7c14.1,0,20.7,5.4,20.7,20.5c0,15-6.1,21.5-20.9,21.5h-16.4c0.2-5.8,0.2-12,0.2-20.9s0-15.9-0.2-21
			H444.8z M457.3,44.4c0-10.7-4-13.5-12.5-13.5c-2.9,0-5.6,0.1-8.1,0.2c-0.1,4.2-0.1,9.2-0.1,13.9c0,6.4,0,10.3,0.1,13.4
			c2.8,0.2,4.9,0.2,7.9,0.2C453.2,58.5,457.3,55.4,457.3,44.4z"/>
		<path class="st1" d="M491.7,66.4c-12.7,0-20.6-7.9-20.6-22.2s8.3-21.3,20.6-21.3c12.3,0,20.7,7,20.7,21.3S504.3,66.4,491.7,66.4z
			 M504,44.5c0-9.5-4.5-14.3-12.2-14.3c-7.8,0-12.4,4.6-12.4,14.3c0,9.6,4.6,14.5,12.4,14.5S504,54,504,44.5z"/>
	</g>
	<g>
		<path class="st1" d="M83.7,20.5l1.9-4.6c2-4.7,0-10.3-4.6-12.5c-4.9-2.3-10.8,0-12.8,5l0,0C67.8,9.2,67,9.8,66,9.8H30.7
			c-0.8,0-1.5-0.5-1.8-1.2l0,0c-2-4.7-7.3-7.3-12.1-5.6c-5.1,1.9-7.6,7.6-5.6,12.6l2,4.8c0.9,2.1,1,4.4,0.3,6.6l-10.4,32
			C1.9,63,3.2,67.3,6.6,69.7l36.3,26.4c3.3,2.4,7.8,2.4,11.2,0l36.3-26.4c3.3-2.4,4.7-6.7,3.5-10.6l-10.4-32
			C82.8,24.9,82.9,22.6,83.7,20.5z"/>
		<g>
			<g>
				<g>
					<circle class="st2" cx="32.8" cy="37.2" r="3.3"/>
				</g>
				<g>
					<circle class="st2" cx="64.2" cy="37.2" r="3.3"/>
				</g>
			</g>
			<g>
				<path class="st2" d="M39,46.7c0-5.2,4.3-9.5,9.5-9.5s9.5,4.3,9.5,9.5v9.5c0,5.2-4.3,9.5-9.5,9.5S39,61.4,39,56.2V46.7z"/>
			</g>
			<g>
				<g>
					<path class="st1" d="M47.1,56.2c-1.8,0-3.3-1.5-3.3-3.3c0-1.8,1.5-3.3,3.3-3.3h2.9c1.8,0,3.3,1.5,3.3,3.3
						c0,1.8-1.5,3.3-3.3,3.3H47.1z"/>
				</g>
			</g>
		</g>
	</g>
</g>
</svg>
